<svg width="493" height="100" viewBox="0 0 493 100" fill="none" xmlns="http://www.w3.org/2000/svg">
<rect width="493" height="100" fill="url(#paint0_linear_19_2043)"/>
<rect width="493" height="100" fill="black" fill-opacity="0.5"/>
<path d="M36.7738 72.5H26.4856L42.1619 27.0898H54.5344L70.1885 72.5H59.9002L48.5255 37.4667H48.1707L36.7738 72.5ZM36.1308 54.6508H60.4324V62.1452H36.1308V54.6508ZM77.5273 72.5V27.0898H95.443C98.8872 27.0898 101.821 27.7476 104.246 29.0632C106.67 30.364 108.518 32.1748 109.789 34.4956C111.075 36.8015 111.718 39.4623 111.718 42.4778C111.718 45.4933 111.068 48.1541 109.767 50.4601C108.466 52.7661 106.581 54.5621 104.113 55.8481C101.659 57.1341 98.6877 57.7772 95.1991 57.7772H83.78V50.0831H93.647C95.4948 50.0831 97.0173 49.7653 98.2146 49.1297C99.4268 48.4793 100.328 47.585 100.92 46.4468C101.526 45.2938 101.829 43.9708 101.829 42.4778C101.829 40.9701 101.526 39.6545 100.92 38.531C100.328 37.3928 99.4268 36.5133 98.2146 35.8925C97.0025 35.2568 95.4652 34.939 93.6027 34.939H87.1282V72.5H77.5273ZM119.827 72.5V27.0898H137.743C141.187 27.0898 144.121 27.7476 146.546 29.0632C148.97 30.364 150.818 32.1748 152.089 34.4956C153.375 36.8015 154.018 39.4623 154.018 42.4778C154.018 45.4933 153.368 48.1541 152.067 50.4601C150.766 52.7661 148.881 54.5621 146.413 55.8481C143.959 57.1341 140.988 57.7772 137.499 57.7772H126.08V50.0831H135.947C137.795 50.0831 139.317 49.7653 140.515 49.1297C141.727 48.4793 142.628 47.585 143.22 46.4468C143.826 45.2938 144.129 43.9708 144.129 42.4778C144.129 40.9701 143.826 39.6545 143.22 38.531C142.628 37.3928 141.727 36.5133 140.515 35.8925C139.303 35.2568 137.765 34.939 135.903 34.939H129.428V72.5H119.827ZM162.127 72.5V27.0898H171.728V64.5843H191.196V72.5H162.127ZM199.427 72.5V27.0898H230.026V35.0055H209.028V45.8259H228.452V53.7417H209.028V64.5843H230.115V72.5H199.427ZM255.857 27.0898H267.697L280.202 57.5998H280.735L293.24 27.0898H305.08V72.5H295.768V42.9435H295.391L283.639 72.2783H277.298L265.546 42.8326H265.169V72.5H255.857V27.0898ZM342.913 27.0898H352.514V56.5798C352.514 59.891 351.723 62.7882 350.141 65.2716C348.574 67.755 346.379 69.6914 343.556 71.0809C340.732 72.4557 337.443 73.143 333.689 73.143C329.919 73.143 326.623 72.4557 323.8 71.0809C320.976 69.6914 318.781 67.755 317.214 65.2716C315.647 62.7882 314.864 59.891 314.864 56.5798V27.0898H324.465V55.7594C324.465 57.4889 324.842 59.0262 325.596 60.3714C326.364 61.7166 327.443 62.7735 328.833 63.5421C330.222 64.3108 331.841 64.6951 333.689 64.6951C335.551 64.6951 337.17 64.3108 338.545 63.5421C339.934 62.7735 341.006 61.7166 341.76 60.3714C342.528 59.0262 342.913 57.4889 342.913 55.7594V27.0898ZM386.92 40.1497C386.743 38.361 385.981 36.9715 384.636 35.9812C383.291 34.9908 381.465 34.4956 379.159 34.4956C377.593 34.4956 376.27 34.7173 375.19 35.1608C374.111 35.5894 373.284 36.1881 372.707 36.9568C372.145 37.7254 371.865 38.5976 371.865 39.5732C371.835 40.3862 372.005 41.0957 372.374 41.7018C372.759 42.3078 373.284 42.8326 373.949 43.2761C374.614 43.7047 375.383 44.0817 376.255 44.4069C377.127 44.7173 378.058 44.9834 379.049 45.2051L383.128 46.1807C385.109 46.6242 386.927 47.2154 388.583 47.9545C390.239 48.6936 391.672 49.6027 392.884 50.6818C394.097 51.7609 395.035 53.0321 395.7 54.4956C396.38 55.959 396.728 57.6367 396.743 59.5288C396.728 62.3078 396.018 64.7173 394.614 66.7572C393.224 68.7823 391.214 70.3566 388.583 71.48C385.967 72.5887 382.811 73.143 379.115 73.143C375.449 73.143 372.256 72.5813 369.536 71.4579C366.831 70.3344 364.717 68.6715 363.195 66.469C361.687 64.2517 360.896 61.5096 360.822 58.2428H370.113C370.216 59.7653 370.652 61.0366 371.421 62.0565C372.205 63.0617 373.247 63.823 374.547 64.3404C375.863 64.8429 377.349 65.0942 379.004 65.0942C380.63 65.0942 382.042 64.8577 383.239 64.3847C384.451 63.9117 385.39 63.2539 386.055 62.4113C386.72 61.5687 387.053 60.6005 387.053 59.5067C387.053 58.4867 386.75 57.6293 386.144 56.9346C385.553 56.2398 384.68 55.6486 383.527 55.1608C382.389 54.6729 380.992 54.2295 379.337 53.8304L374.392 52.5887C370.564 51.6574 367.541 50.2014 365.323 48.2206C363.106 46.2398 362.005 43.5717 362.02 40.2162C362.005 37.4667 362.737 35.0647 364.215 33.01C365.708 30.9553 367.755 29.3514 370.357 28.1984C372.958 27.0455 375.915 26.469 379.226 26.469C382.596 26.469 385.538 27.0455 388.051 28.1984C390.578 29.3514 392.544 30.9553 393.949 33.01C395.353 35.0647 396.077 37.4446 396.122 40.1497H386.92ZM414.675 27.0898V72.5H405.074V27.0898H414.675ZM464.513 42.9878H454.802C454.624 41.7313 454.262 40.6153 453.715 39.6397C453.168 38.6493 452.466 37.8067 451.609 37.112C450.751 36.4172 449.761 35.8851 448.637 35.5155C447.529 35.146 446.324 34.9612 445.023 34.9612C442.673 34.9612 440.626 35.5451 438.881 36.7129C437.137 37.8659 435.785 39.551 434.824 41.7683C433.863 43.9708 433.382 46.6463 433.382 49.7949C433.382 53.0321 433.863 55.752 434.824 57.9545C435.799 60.1571 437.159 61.82 438.904 62.9435C440.648 64.0669 442.666 64.6286 444.957 64.6286C446.243 64.6286 447.433 64.4586 448.527 64.1186C449.635 63.7786 450.618 63.2834 451.476 62.633C452.333 61.9678 453.043 61.1622 453.604 60.2162C454.181 59.2701 454.58 58.1911 454.802 56.9789L464.513 57.0233C464.262 59.1075 463.634 61.1179 462.629 63.0543C461.638 64.976 460.3 66.6981 458.615 68.2206C456.945 69.7284 454.949 70.9257 452.629 71.8126C450.323 72.6848 447.714 73.1208 444.802 73.1208C440.751 73.1208 437.13 72.2044 433.937 70.3714C430.759 68.5384 428.246 65.8851 426.398 62.4113C424.565 58.9375 423.649 54.7321 423.649 49.7949C423.649 44.8429 424.58 40.6301 426.442 37.1563C428.305 33.6826 430.833 31.0366 434.025 29.2184C437.218 27.3854 440.81 26.469 444.802 26.469C447.433 26.469 449.872 26.8385 452.119 27.5776C454.38 28.3167 456.383 29.3958 458.127 30.8149C459.872 32.2191 461.291 33.9412 462.385 35.9812C463.493 38.0211 464.203 40.3566 464.513 42.9878Z" fill="white"/>
<defs>
<linearGradient id="paint0_linear_19_2043" x1="246.5" y1="0" x2="246.5" y2="100" gradientUnits="userSpaceOnUse">
<stop stop-color="#FB5C74"/>
<stop offset="1" stop-color="#FA243C"/>
</linearGradient>
</defs>
</svg>
