<svg width="659" height="100" viewBox="0 0 659 100" fill="none" xmlns="http://www.w3.org/2000/svg">
<rect width="659" height="100" fill="black"/>
<rect width="659" height="100" fill="black" fill-opacity="0.5"/>
<path d="M28.9468 27.0898H40.7871L53.2927 57.5998H53.8248L66.3304 27.0898H78.1707V72.5H68.8581V42.9435H68.4812L56.7295 72.2783H50.388L38.6364 42.8326H38.2594V72.5H28.9468V27.0898ZM129.684 49.7949C129.684 54.7469 128.745 58.9597 126.868 62.4335C125.005 65.9072 122.463 68.5606 119.24 70.3936C116.032 72.2118 112.426 73.1208 108.42 73.1208C104.384 73.1208 100.763 72.2044 97.555 70.3714C94.3473 68.5384 91.8122 65.8851 89.9497 62.4113C88.0871 58.9375 87.1559 54.7321 87.1559 49.7949C87.1559 44.8429 88.0871 40.6301 89.9497 37.1563C91.8122 33.6826 94.3473 31.0366 97.555 29.2184C100.763 27.3854 104.384 26.469 108.42 26.469C112.426 26.469 116.032 27.3854 119.24 29.2184C122.463 31.0366 125.005 33.6826 126.868 37.1563C128.745 40.6301 129.684 44.8429 129.684 49.7949ZM119.95 49.7949C119.95 46.5872 119.469 43.8821 118.508 41.6796C117.562 39.4771 116.225 37.8067 114.495 36.6685C112.766 35.5303 110.741 34.9612 108.42 34.9612C106.099 34.9612 104.074 35.5303 102.344 36.6685C100.615 37.8067 99.2697 39.4771 98.3089 41.6796C97.3628 43.8821 96.8898 46.5872 96.8898 49.7949C96.8898 53.0026 97.3628 55.7077 98.3089 57.9102C99.2697 60.1127 100.615 61.7831 102.344 62.9213C104.074 64.0595 106.099 64.6286 108.42 64.6286C110.741 64.6286 112.766 64.0595 114.495 62.9213C116.225 61.7831 117.562 60.1127 118.508 57.9102C119.469 55.7077 119.95 53.0026 119.95 49.7949ZM138.669 72.5V27.0898H156.584C160.014 27.0898 162.941 27.7032 165.365 28.9302C167.804 30.1423 169.659 31.8644 170.93 34.0965C172.216 36.3137 172.859 38.9228 172.859 41.9235C172.859 44.939 172.209 47.5333 170.908 49.7062C169.607 51.8644 167.723 53.52 165.254 54.6729C162.8 55.8259 159.829 56.4024 156.341 56.4024H144.345V48.6863H154.788C156.621 48.6863 158.144 48.435 159.356 47.9324C160.568 47.4298 161.47 46.6759 162.061 45.6707C162.667 44.6656 162.97 43.4165 162.97 41.9235C162.97 40.4157 162.667 39.1445 162.061 38.1098C161.47 37.075 160.561 36.2916 159.334 35.7594C158.122 35.2125 156.592 34.939 154.744 34.939H148.27V72.5H138.669ZM163.192 51.8348L174.478 72.5H163.879L152.837 51.8348H163.192ZM181.518 72.5V27.0898H212.116V35.0055H191.118V45.8259H210.542V53.7417H191.118V64.5843H212.205V72.5H181.518ZM237.947 72.5V27.0898H255.863C259.307 27.0898 262.241 27.7476 264.665 29.0632C267.089 30.364 268.937 32.1748 270.208 34.4956C271.494 36.8015 272.137 39.4623 272.137 42.4778C272.137 45.4933 271.487 48.1541 270.186 50.4601C268.885 52.7661 267.001 54.5621 264.532 55.8481C262.078 57.1341 259.107 57.7772 255.619 57.7772H244.2V50.0831H254.067C255.914 50.0831 257.437 49.7653 258.634 49.1297C259.846 48.4793 260.748 47.585 261.339 46.4468C261.945 45.2938 262.248 43.9708 262.248 42.4778C262.248 40.9701 261.945 39.6545 261.339 38.531C260.748 37.3928 259.846 36.5133 258.634 35.8925C257.422 35.2568 255.885 34.939 254.022 34.939H247.548V72.5H237.947ZM280.247 72.5V27.0898H289.848V64.5843H309.316V72.5H280.247ZM326.532 72.5H316.244L331.92 27.0898H344.293L359.947 72.5H349.659L338.284 37.4667H337.929L326.532 72.5ZM325.889 54.6508H350.191V62.1452H325.889V54.6508ZM360.008 35.0055V27.0898H397.302V35.0055H383.4V72.5H373.91V35.0055H360.008ZM405.318 72.5V27.0898H435.384V35.0055H414.918V45.8259H433.388V53.7417H414.918V72.5H405.318ZM485.445 49.7949C485.445 54.7469 484.506 58.9597 482.629 62.4335C480.766 65.9072 478.224 68.5606 475.001 70.3936C471.793 72.2118 468.187 73.1208 464.181 73.1208C460.145 73.1208 456.524 72.2044 453.316 70.3714C450.108 68.5384 447.573 65.8851 445.711 62.4113C443.848 58.9375 442.917 54.7321 442.917 49.7949C442.917 44.8429 443.848 40.6301 445.711 37.1563C447.573 33.6826 450.108 31.0366 453.316 29.2184C456.524 27.3854 460.145 26.469 464.181 26.469C468.187 26.469 471.793 27.3854 475.001 29.2184C478.224 31.0366 480.766 33.6826 482.629 37.1563C484.506 40.6301 485.445 44.8429 485.445 49.7949ZM475.711 49.7949C475.711 46.5872 475.23 43.8821 474.269 41.6796C473.323 39.4771 471.986 37.8067 470.256 36.6685C468.527 35.5303 466.501 34.9612 464.181 34.9612C461.86 34.9612 459.835 35.5303 458.105 36.6685C456.376 37.8067 455.031 39.4771 454.07 41.6796C453.124 43.8821 452.651 46.5872 452.651 49.7949C452.651 53.0026 453.124 55.7077 454.07 57.9102C455.031 60.1127 456.376 61.7831 458.105 62.9213C459.835 64.0595 461.86 64.6286 464.181 64.6286C466.501 64.6286 468.527 64.0595 470.256 62.9213C471.986 61.7831 473.323 60.1127 474.269 57.9102C475.23 55.7077 475.711 53.0026 475.711 49.7949ZM494.43 72.5V27.0898H512.345C515.775 27.0898 518.702 27.7032 521.126 28.9302C523.565 30.1423 525.42 31.8644 526.691 34.0965C527.977 36.3137 528.62 38.9228 528.62 41.9235C528.62 44.939 527.97 47.5333 526.669 49.7062C525.368 51.8644 523.484 53.52 521.015 54.6729C518.561 55.8259 515.59 56.4024 512.102 56.4024H500.106V48.6863H510.549C512.382 48.6863 513.905 48.435 515.117 47.9324C516.329 47.4298 517.231 46.6759 517.822 45.6707C518.428 44.6656 518.731 43.4165 518.731 41.9235C518.731 40.4157 518.428 39.1445 517.822 38.1098C517.231 37.075 516.322 36.2916 515.095 35.7594C513.883 35.2125 512.353 34.939 510.505 34.939H504.031V72.5H494.43ZM518.953 51.8348L530.239 72.5H519.64L508.598 51.8348H518.953ZM537.279 27.0898H549.119L561.624 57.5998H562.157L574.662 27.0898H586.502V72.5H577.19V42.9435H576.813L565.061 72.2783H558.72L546.968 42.8326H546.591V72.5H537.279V27.0898ZM620.92 40.1497C620.743 38.361 619.981 36.9715 618.636 35.9812C617.291 34.9908 615.465 34.4956 613.159 34.4956C611.593 34.4956 610.27 34.7173 609.19 35.1608C608.111 35.5894 607.284 36.1881 606.707 36.9568C606.145 37.7254 605.865 38.5976 605.865 39.5732C605.835 40.3862 606.005 41.0957 606.375 41.7018C606.759 42.3078 607.284 42.8326 607.949 43.2761C608.614 43.7047 609.383 44.0817 610.255 44.4069C611.127 44.7173 612.058 44.9834 613.049 45.2051L617.128 46.1807C619.109 46.6242 620.927 47.2154 622.583 47.9545C624.239 48.6936 625.672 49.6027 626.885 50.6818C628.097 51.7609 629.035 53.0321 629.7 54.4956C630.38 55.959 630.728 57.6367 630.743 59.5288C630.728 62.3078 630.018 64.7173 628.614 66.7572C627.224 68.7823 625.214 70.3566 622.583 71.48C619.967 72.5887 616.811 73.143 613.115 73.143C609.449 73.143 606.256 72.5813 603.536 71.4579C600.831 70.3344 598.717 68.6715 597.195 66.469C595.687 64.2517 594.896 61.5096 594.822 58.2428H604.113C604.216 59.7653 604.652 61.0366 605.421 62.0565C606.205 63.0617 607.247 63.823 608.547 64.3404C609.863 64.8429 611.349 65.0942 613.004 65.0942C614.63 65.0942 616.042 64.8577 617.239 64.3847C618.451 63.9117 619.39 63.2539 620.055 62.4113C620.72 61.5687 621.053 60.6005 621.053 59.5067C621.053 58.4867 620.75 57.6293 620.144 56.9346C619.553 56.2398 618.681 55.6486 617.528 55.1608C616.389 54.6729 614.992 54.2295 613.337 53.8304L608.392 52.5887C604.564 51.6574 601.541 50.2014 599.324 48.2206C597.106 46.2398 596.005 43.5717 596.02 40.2162C596.005 37.4667 596.737 35.0647 598.215 33.01C599.708 30.9553 601.755 29.3514 604.357 28.1984C606.958 27.0455 609.915 26.469 613.226 26.469C616.596 26.469 619.538 27.0455 622.051 28.1984C624.579 29.3514 626.545 30.9553 627.949 33.01C629.353 35.0647 630.077 37.4446 630.122 40.1497H620.92Z" fill="white"/>
</svg>
