<svg width="331" height="100" viewBox="0 0 331 100" fill="none" xmlns="http://www.w3.org/2000/svg">
<rect width="331" height="100" fill="#1ED760"/>
<rect width="331" height="100" fill="black" fill-opacity="0.5"/>
<path d="M53.5809 40.1497C53.4035 38.361 52.6423 36.9715 51.2971 35.9812C49.952 34.9908 48.1264 34.4956 45.8204 34.4956C44.2535 34.4956 42.9305 34.7173 41.8514 35.1608C40.7724 35.5894 39.9446 36.1881 39.3681 36.9568C38.8064 37.7254 38.5255 38.5976 38.5255 39.5732C38.4959 40.3862 38.6659 41.0957 39.0355 41.7018C39.4198 42.3078 39.9446 42.8326 40.6098 43.2761C41.2749 43.7047 42.0436 44.0817 42.9157 44.4069C43.7879 44.7173 44.7191 44.9834 45.7095 45.2051L49.7894 46.1807C51.7701 46.6242 53.5883 47.2154 55.2439 47.9545C56.8995 48.6936 58.3333 49.6027 59.5455 50.6818C60.7576 51.7609 61.6962 53.0321 62.3614 54.4956C63.0414 55.959 63.3888 57.6367 63.4035 59.5288C63.3888 62.3078 62.6792 64.7173 61.2749 66.7572C59.8854 68.7823 57.8751 70.3566 55.2439 71.48C52.6275 72.5887 49.4715 73.143 45.7761 73.143C42.1101 73.143 38.9172 72.5813 36.1973 71.4579C33.4922 70.3344 31.3784 68.6715 29.8559 66.469C28.3481 64.2517 27.5573 61.5096 27.4834 58.2428H36.7738C36.8773 59.7653 37.3134 61.0366 38.082 62.0565C38.8655 63.0617 39.9076 63.823 41.2084 64.3404C42.524 64.8429 44.0096 65.0942 45.6652 65.0942C47.2912 65.0942 48.7029 64.8577 49.9002 64.3847C51.1123 63.9117 52.051 63.2539 52.7162 62.4113C53.3814 61.5687 53.714 60.6005 53.714 59.5067C53.714 58.4867 53.4109 57.6293 52.8049 56.9346C52.2136 56.2398 51.3415 55.6486 50.1885 55.1608C49.0503 54.6729 47.6534 54.2295 45.9978 53.8304L41.0532 52.5887C37.2247 51.6574 34.2018 50.2014 31.9845 48.2206C29.7672 46.2398 28.6659 43.5717 28.6807 40.2162C28.6659 37.4667 29.3976 35.0647 30.8758 33.01C32.3688 30.9553 34.4161 29.3514 37.0177 28.1984C39.6194 27.0455 42.5758 26.469 45.8869 26.469C49.2572 26.469 52.1988 27.0455 54.7118 28.1984C57.2395 29.3514 59.2055 30.9553 60.6098 33.01C62.014 35.0647 62.7384 37.4446 62.7827 40.1497H53.5809ZM71.7346 72.5V27.0898H89.6503C93.0945 27.0898 96.0288 27.7476 98.453 29.0632C100.877 30.364 102.725 32.1748 103.996 34.4956C105.282 36.8015 105.925 39.4623 105.925 42.4778C105.925 45.4933 105.275 48.1541 103.974 50.4601C102.673 52.7661 100.789 54.5621 98.32 55.8481C95.8661 57.1341 92.895 57.7772 89.4064 57.7772H77.9874V50.0831H87.8543C89.7021 50.0831 91.2246 49.7653 92.422 49.1297C93.6341 48.4793 94.5358 47.585 95.1271 46.4468C95.7331 45.2938 96.0361 43.9708 96.0361 42.4778C96.0361 40.9701 95.7331 39.6545 95.1271 38.531C94.5358 37.3928 93.6341 36.5133 92.422 35.8925C91.2098 35.2568 89.6725 34.939 87.81 34.939H81.3355V72.5H71.7346ZM155.764 49.7949C155.764 54.7469 154.825 58.9597 152.948 62.4335C151.086 65.9072 148.543 68.5606 145.321 70.3936C142.113 72.2118 138.506 73.1208 134.5 73.1208C130.465 73.1208 126.843 72.2044 123.635 70.3714C120.428 68.5384 117.893 65.8851 116.03 62.4113C114.168 58.9375 113.236 54.7321 113.236 49.7949C113.236 44.8429 114.168 40.6301 116.03 37.1563C117.893 33.6826 120.428 31.0366 123.635 29.2184C126.843 27.3854 130.465 26.469 134.5 26.469C138.506 26.469 142.113 27.3854 145.321 29.2184C148.543 31.0366 151.086 33.6826 152.948 37.1563C154.825 40.6301 155.764 44.8429 155.764 49.7949ZM146.03 49.7949C146.03 46.5872 145.55 43.8821 144.589 41.6796C143.643 39.4771 142.305 37.8067 140.576 36.6685C138.846 35.5303 136.821 34.9612 134.5 34.9612C132.179 34.9612 130.154 35.5303 128.425 36.6685C126.695 37.8067 125.35 39.4771 124.389 41.6796C123.443 43.8821 122.97 46.5872 122.97 49.7949C122.97 53.0026 123.443 55.7077 124.389 57.9102C125.35 60.1127 126.695 61.7831 128.425 62.9213C130.154 64.0595 132.179 64.6286 134.5 64.6286C136.821 64.6286 138.846 64.0595 140.576 62.9213C142.305 61.7831 143.643 60.1127 144.589 57.9102C145.55 55.7077 146.03 53.0026 146.03 49.7949ZM160.947 35.0055V27.0898H198.241V35.0055H184.339V72.5H174.849V35.0055H160.947ZM215.857 27.0898V72.5H206.257V27.0898H215.857ZM225.63 72.5V27.0898H255.696V35.0055H235.231V45.8259H253.701V53.7417H235.231V72.5H225.63ZM261.367 27.0898H272.12L282.475 46.6463H282.919L293.273 27.0898H304.027L287.464 56.4468V72.5H277.93V56.4468L261.367 27.0898Z" fill="white"/>
</svg>
