<svg width="365" height="100" viewBox="0 0 365 100" fill="none" xmlns="http://www.w3.org/2000/svg">
<rect width="365" height="100" fill="#FF0033"/>
<rect width="365" height="100" fill="black" fill-opacity="0.5"/>
<path d="M26.286 27.0898H37.0399L47.3947 46.6463H47.8381L58.1929 27.0898H68.9468L52.3836 56.4468V72.5H42.8492V56.4468L26.286 27.0898ZM115.049 49.7949C115.049 54.7469 114.111 58.9597 112.233 62.4335C110.371 65.9072 107.828 68.5606 104.606 70.3936C101.398 72.2118 97.7915 73.1208 93.7856 73.1208C89.7501 73.1208 86.1285 72.2044 82.9208 70.3714C79.7132 68.5384 77.178 65.8851 75.3155 62.4113C73.453 58.9375 72.5217 54.7321 72.5217 49.7949C72.5217 44.8429 73.453 40.6301 75.3155 37.1563C77.178 33.6826 79.7132 31.0366 82.9208 29.2184C86.1285 27.3854 89.7501 26.469 93.7856 26.469C97.7915 26.469 101.398 27.3854 104.606 29.2184C107.828 31.0366 110.371 33.6826 112.233 37.1563C114.111 40.6301 115.049 44.8429 115.049 49.7949ZM105.316 49.7949C105.316 46.5872 104.835 43.8821 103.874 41.6796C102.928 39.4771 101.59 37.8067 99.861 36.6685C98.1315 35.5303 96.1064 34.9612 93.7856 34.9612C91.4648 34.9612 89.4397 35.5303 87.7102 36.6685C85.9807 37.8067 84.6355 39.4771 83.6747 41.6796C82.7287 43.8821 82.2557 46.5872 82.2557 49.7949C82.2557 53.0026 82.7287 55.7077 83.6747 57.9102C84.6355 60.1127 85.9807 61.7831 87.7102 62.9213C89.4397 64.0595 91.4648 64.6286 93.7856 64.6286C96.1064 64.6286 98.1315 64.0595 99.861 62.9213C101.59 61.7831 102.928 60.1127 103.874 57.9102C104.835 55.7077 105.316 53.0026 105.316 49.7949ZM152.083 27.0898H161.684V56.5798C161.684 59.891 160.893 62.7882 159.312 65.2716C157.745 67.755 155.55 69.6914 152.726 71.0809C149.903 72.4557 146.614 73.143 142.859 73.143C139.09 73.143 135.794 72.4557 132.97 71.0809C130.147 69.6914 127.952 67.755 126.385 65.2716C124.818 62.7882 124.035 59.891 124.035 56.5798V27.0898H133.635V55.7594C133.635 57.4889 134.012 59.0262 134.766 60.3714C135.535 61.7166 136.614 62.7735 138.004 63.5421C139.393 64.3108 141.012 64.6951 142.859 64.6951C144.722 64.6951 146.341 64.3108 147.715 63.5421C149.105 62.7735 150.177 61.7166 150.93 60.3714C151.699 59.0262 152.083 57.4889 152.083 55.7594V27.0898ZM169.727 35.0055V27.0898H207.022V35.0055H193.12V72.5H183.63V35.0055H169.727ZM243.086 27.0898H252.687V56.5798C252.687 59.891 251.896 62.7882 250.314 65.2716C248.747 67.755 246.552 69.6914 243.729 71.0809C240.905 72.4557 237.616 73.143 233.862 73.143C230.092 73.143 226.796 72.4557 223.973 71.0809C221.149 69.6914 218.954 67.755 217.387 65.2716C215.82 62.7882 215.037 59.891 215.037 56.5798V27.0898H224.638V55.7594C224.638 57.4889 225.015 59.0262 225.769 60.3714C226.537 61.7166 227.616 62.7735 229.006 63.5421C230.395 64.3108 232.014 64.6951 233.862 64.6951C235.724 64.6951 237.343 64.3108 238.718 63.5421C240.107 62.7735 241.179 61.7166 241.933 60.3714C242.701 59.0262 243.086 57.4889 243.086 55.7594V27.0898ZM262.459 72.5V27.0898H280.641C283.982 27.0898 286.768 27.585 289 28.5754C291.232 29.5658 292.91 30.9405 294.033 32.6996C295.157 34.4438 295.718 36.4542 295.718 38.7306C295.718 40.5044 295.364 42.0639 294.654 43.4091C293.945 44.7395 292.969 45.8333 291.727 46.6907C290.5 47.5333 289.096 48.1319 287.514 48.4867V48.9302C289.244 49.0041 290.863 49.4919 292.37 50.3936C293.893 51.2953 295.127 52.5591 296.073 54.1851C297.019 55.7964 297.492 57.718 297.492 59.9501C297.492 62.3596 296.894 64.5103 295.696 66.4024C294.514 68.2797 292.762 69.7653 290.441 70.8592C288.12 71.9531 285.26 72.5 281.86 72.5H262.459ZM272.06 64.6508H279.887C282.562 64.6508 284.514 64.1408 285.741 63.1208C286.967 62.0861 287.581 60.7114 287.581 58.9967C287.581 57.7402 287.278 56.6316 286.672 55.6707C286.066 54.7099 285.201 53.956 284.078 53.4091C282.969 52.8622 281.646 52.5887 280.109 52.5887H272.06V64.6508ZM272.06 46.092H279.177C280.493 46.092 281.661 45.8629 282.681 45.4047C283.715 44.9316 284.528 44.2664 285.12 43.4091C285.726 42.5517 286.029 41.5244 286.029 40.3271C286.029 38.6863 285.445 37.3633 284.277 36.3581C283.124 35.3529 281.483 34.8503 279.355 34.8503H272.06V46.092ZM305.613 72.5V27.0898H336.211V35.0055H315.214V45.8259H334.637V53.7417H315.214V64.5843H336.3V72.5H305.613Z" fill="white"/>
</svg>
